<?xml version="1.0" encoding="UTF-8" standalone="no"?><!DOCTYPE svg PUBLIC "-//W3C//DTD SVG 1.1//EN" "http://www.w3.org/Graphics/SVG/1.1/DTD/svg11.dtd"><svg width="100%" height="100%" viewBox="0 0 1920 1080" version="1.1" xmlns="http://www.w3.org/2000/svg" xmlns:xlink="http://www.w3.org/1999/xlink" xml:space="preserve" xmlns:serif="http://www.serif.com/" style="fill-rule:evenodd;clip-rule:evenodd;stroke-linejoin:round;stroke-miterlimit:2;"><path d="M3098.2,648.023c-547.817,-67.245 -984.192,-310.19 -1296.6,-748.589l-7.548,13.073c316.01,439.548 753.34,680.685 1296.6,748.589l7.547,-13.073Z" style="fill:url(#_Linear1);"/><path d="M3026.72,639.089c-547.817,-67.245 -984.192,-310.19 -1296.6,-748.589l-7.548,13.073c316.01,439.548 753.34,680.685 1296.6,748.589l7.547,-13.073Z" style="fill:url(#_Linear2);"/><path d="M2955.25,630.155c-547.817,-67.245 -984.192,-310.19 -1296.6,-748.59l-7.547,13.073c316.009,439.549 753.339,680.686 1296.6,748.59l7.547,-13.073Z" style="fill:url(#_Linear3);"/><path d="M2883.77,621.221c-547.817,-67.245 -984.192,-310.19 -1296.6,-748.59l-7.547,13.073c316.009,439.549 753.339,680.686 1296.6,748.59l7.547,-13.073Z" style="fill:url(#_Linear4);"/><path d="M2812.3,612.287c-547.817,-67.246 -984.193,-310.191 -1296.6,-748.59l-7.547,13.073c316.009,439.548 753.339,680.685 1296.6,748.589l7.548,-13.072Z" style="fill:url(#_Linear5);"/><path d="M2740.83,603.352c-547.817,-67.245 -984.193,-310.19 -1296.6,-748.589l-7.547,13.073c316.009,439.548 753.34,680.685 1296.6,748.589l7.548,-13.073Z" style="fill:url(#_Linear6);"/><path d="M2669.35,594.418c-547.817,-67.245 -984.192,-310.19 -1296.6,-748.59l-7.547,13.073c316.009,439.549 753.34,680.686 1296.6,748.59l7.548,-13.073Z" style="fill:url(#_Linear7);"/><path d="M2597.88,585.484c-547.817,-67.245 -984.192,-310.19 -1296.6,-748.59l-7.548,13.073c316.009,439.549 753.34,680.686 1296.6,748.59l7.548,-13.073Z" style="fill:url(#_Linear8);"/><path d="M2526.4,576.55c-547.817,-67.246 -984.192,-310.19 -1296.6,-748.59l-7.548,13.073c316.009,439.548 753.34,680.685 1296.6,748.589l7.548,-13.072Z" style="fill:url(#_Linear9);"/><path d="M2454.93,567.615c-547.817,-67.245 -984.192,-310.19 -1296.6,-748.589l-7.548,13.073c316.01,439.548 753.34,680.685 1296.6,748.589l7.548,-13.073Z" style="fill:url(#_Linear10);"/><defs><linearGradient id="_Linear1" x1="0" y1="0" x2="1" y2="0" gradientUnits="userSpaceOnUse" gradientTransform="matrix(1291.84,745.845,-745.845,1291.84,1801.23,-94.44)"><stop offset="0" style="stop-color:#c40c0c;stop-opacity:1"/><stop offset="1" style="stop-color:#ff4444;stop-opacity:1"/></linearGradient><linearGradient id="_Linear2" x1="0" y1="0" x2="1" y2="0" gradientUnits="userSpaceOnUse" gradientTransform="matrix(1291.84,745.845,-745.845,1291.84,1729.76,-103.374)"><stop offset="0" style="stop-color:#c40c0c;stop-opacity:1"/><stop offset="1" style="stop-color:#ff4444;stop-opacity:1"/></linearGradient><linearGradient id="_Linear3" x1="0" y1="0" x2="1" y2="0" gradientUnits="userSpaceOnUse" gradientTransform="matrix(1291.84,745.845,-745.845,1291.84,1658.28,-112.308)"><stop offset="0" style="stop-color:#c40c0c;stop-opacity:1"/><stop offset="1" style="stop-color:#ff4444;stop-opacity:1"/></linearGradient><linearGradient id="_Linear4" x1="0" y1="0" x2="1" y2="0" gradientUnits="userSpaceOnUse" gradientTransform="matrix(1291.84,745.845,-745.845,1291.84,1586.81,-121.243)"><stop offset="0" style="stop-color:#c40c0c;stop-opacity:1"/><stop offset="1" style="stop-color:#ff4444;stop-opacity:1"/></linearGradient><linearGradient id="_Linear5" x1="0" y1="0" x2="1" y2="0" gradientUnits="userSpaceOnUse" gradientTransform="matrix(1291.84,745.845,-745.845,1291.84,1515.34,-130.177)"><stop offset="0" style="stop-color:#c40c0c;stop-opacity:1"/><stop offset="1" style="stop-color:#ff4444;stop-opacity:1"/></linearGradient><linearGradient id="_Linear6" x1="0" y1="0" x2="1" y2="0" gradientUnits="userSpaceOnUse" gradientTransform="matrix(1291.84,745.845,-745.845,1291.84,1443.86,-139.111)"><stop offset="0" style="stop-color:#c40c0c;stop-opacity:1"/><stop offset="1" style="stop-color:#ff4444;stop-opacity:1"/></linearGradient><linearGradient id="_Linear7" x1="0" y1="0" x2="1" y2="0" gradientUnits="userSpaceOnUse" gradientTransform="matrix(1291.84,745.845,-745.845,1291.84,1372.39,-148.045)"><stop offset="0" style="stop-color:#c40c0c;stop-opacity:1"/><stop offset="1" style="stop-color:#ff4444;stop-opacity:1"/></linearGradient><linearGradient id="_Linear8" x1="0" y1="0" x2="1" y2="0" gradientUnits="userSpaceOnUse" gradientTransform="matrix(1291.84,745.845,-745.845,1291.84,1300.91,-156.98)"><stop offset="0" style="stop-color:#c40c0c;stop-opacity:1"/><stop offset="1" style="stop-color:#ff4444;stop-opacity:1"/></linearGradient><linearGradient id="_Linear9" x1="0" y1="0" x2="1" y2="0" gradientUnits="userSpaceOnUse" gradientTransform="matrix(1291.84,745.845,-745.845,1291.84,1229.44,-165.914)"><stop offset="0" style="stop-color:#c40c0c;stop-opacity:1"/><stop offset="1" style="stop-color:#ff4444;stop-opacity:1"/></linearGradient><linearGradient id="_Linear10" x1="0" y1="0" x2="1" y2="0" gradientUnits="userSpaceOnUse" gradientTransform="matrix(1291.84,745.845,-745.845,1291.84,1157.97,-174.848)"><stop offset="0" style="stop-color:#c40c0c;stop-opacity:1"/><stop offset="1" style="stop-color:#ff4444;stop-opacity:1"/></linearGradient></defs></svg>