<?xml version="1.0" encoding="UTF-8" standalone="no"?><!DOCTYPE svg PUBLIC "-//W3C//DTD SVG 1.1//EN" "http://www.w3.org/Graphics/SVG/1.1/DTD/svg11.dtd"><svg width="100%" height="100%" viewBox="0 0 240 240" version="1.1" xmlns="http://www.w3.org/2000/svg" xmlns:xlink="http://www.w3.org/1999/xlink" xml:space="preserve" xmlns:serif="http://www.serif.com/" style="fill-rule:evenodd;clip-rule:evenodd;stroke-linejoin:round;stroke-miterlimit:2;"><path d="M139.113,65.266l-57.339,-0c-5.288,-0 -9.812,3.185 -11.723,7.772l-19.241,44.916c-0.573,1.466 -0.892,2.995 -0.892,4.651l0,12.742c0,7.009 5.734,12.743 12.742,12.743l40.202,-0l-6.053,29.115l-0.191,2.039c0,2.612 1.083,5.033 2.803,6.754l6.754,6.689l41.985,-41.985c2.294,-2.294 3.695,-5.479 3.695,-8.984l0,-63.71c0,-7.009 -5.734,-12.742 -12.742,-12.742Zm25.485,-0l-0,76.452l25.484,0l-0,-76.452l-25.484,-0Z" style="fill:url(#_Linear1);fill-rule:nonzero;"/><g id="Thumb-Down--m.io-" serif:id="Thumb Down (m.io)"></g><defs><linearGradient id="_Linear1" x1="0" y1="0" x2="1" y2="0" gradientUnits="userSpaceOnUse" gradientTransform="matrix(152.906,153.295,-153.295,152.906,43.6442,45.958)"><stop offset="0" style="stop-color:#f00;stop-opacity:1"/><stop offset="0.56" style="stop-color:#4c0000;stop-opacity:1"/><stop offset="1" style="stop-color:#000;stop-opacity:1"/></linearGradient></defs></svg>